<?xml version="1.0" encoding="UTF-8"?>
<svg id="Lager_2" data-name="Lager 2" xmlns="http://www.w3.org/2000/svg" viewBox="0 0 637 746">
  <defs>
    <style>
      .cls-1 {
        fill: none;
      }

      .cls-1, .cls-2, .cls-3, .cls-4, .cls-5, .cls-6, .cls-7, .cls-8 {
        stroke: #000;
        stroke-miterlimit: 10;
      }

      .cls-3 {
        fill: #ccc;
      }

      .cls-4 {
        fill: #f4dc76;
      }

      .cls-5 {
        fill: #a1cc85;
      }

      .cls-6 {
        fill: #c7b299;
      }

      .cls-7, .cls-9 {
        fill: #f2f2f2;
      }

      .cls-8 {
        fill: #abefed;
      }
    </style>
  </defs>
  <polygon class="cls-1" points="392.03 162.83 347.1 196.53 297 195.3 245.33 168.35 266.23 131.38 308.91 55 362.11 124.98 392.03 162.83"/>
  <polygon class="cls-8" points="362.11 124.98 333.62 142.61 297.68 142.61 268.48 126.89 308.91 55 362.11 124.98"/>
  <polygon class="cls-1" points="245.33 168.35 252.75 596.4 306.67 614.37 351.6 614.37 398.77 594.15 392.03 162.83 347.1 196.53 297 195.3 245.33 168.35"/>
  <polygon class="cls-7" points="248.26 389.73 230.29 407.7 219.05 434.65 249.12 451.02 248.26 389.73"/>
  <polygon class="cls-7" points="396.53 391.97 418.99 405.45 430.22 432.41 396.53 445.89 396.53 391.97"/>
  <polygon class="cls-6" points="228.04 439.15 196.59 481.83 183.11 463.86 176.37 470.6 194.34 495.31 205.57 495.31 239.27 445.89 228.04 439.15"/>
  <path class="cls-6" d="m187.92,452.26c-1.58,8.39-8.21,14.2-8.21,14.2,0,0-4.08-7.81-2.5-16.2,1.58-8.39,5.25-14.75,8.21-14.2s4.08,7.81,2.5,16.2Z"/>
  <path class="cls-6" d="m171.88,449.83c5.48,6.55,5.74,15.36,5.74,15.36,0,0-8.62-1.82-14.1-8.37-5.48-6.55-8.05-13.43-5.74-15.36s8.62,1.82,14.1,8.37Z"/>
  <path class="cls-6" d="m163.52,461.36c8.53.48,15.13,6.31,15.13,6.31,0,0-7.22,5.05-15.75,4.57-8.53-.48-15.3-3.3-15.13-6.31.17-3,7.22-5.05,15.75-4.57Z"/>
  <polygon class="cls-6" points="421.24 436.9 436.96 486.32 398.77 511.04 398.77 497.56 421.24 484.08 410 441.39 421.24 436.9"/>
  <path class="cls-7" d="m394.28,356.03s-78.63,56.16-76.38,56.16,17.97,22.46,17.97,22.46l58.41-40.44v-38.19Z"/>
  <polygon class="cls-7" points="249.12 363.45 317.9 412.19 306.67 436.9 249.64 401.82 249.12 363.45"/>
  <polygon class="cls-5" points="315.83 440.71 299.93 495.31 322.39 526.76 342.61 495.31 326.88 441.39 324.64 441.39 317.9 441.39 315.83 440.71"/>
  <path class="cls-3" d="m250.5,495.31l42.68,24.71,25.73,2.85,3.47,3.88s4.21-3.79,3.23-4.14,32.72-.35,32.72-.35l38.19-26.96v13.48l-31.45,24.71-78.63-2.25-35.94-22.46v-13.48Z"/>
  <path class="cls-6" d="m293.59,664.83l1.84-25.75,10.52-25.12-18.54-5.84-7.71,21.97-3.8,32.33c6.05.51,11.97,1.23,17.69,2.41Z"/>
  <path class="cls-6" d="m360.58,668.29c1.38-.04,3.49-2.96,4.86-2.92,4.71.13,9.36.47,14.01.62l-3.78-38.14-8.02-20.22-16.05,6.74,8.02,22.46.96,31.45Z"/>
  <polygon class="cls-5" points="317.9 412.19 306.67 436.9 315.83 440.71 326.88 441.39 335.87 434.65 317.9 412.19"/>
  <polygon class="cls-4" points="250.5 508.79 252.75 596.4 306.67 614.37 351.6 614.37 398.77 594.15 396.53 508.79 365.71 533.26 286.45 531.25 250.5 508.79"/>
  <polygon class="cls-8" points="245.33 168.35 297 195.3 347.1 196.53 392.03 162.83 394.28 356.03 317.9 412.19 249.12 363.45 245.33 168.35"/>
  <polygon class="cls-6" points="268.48 126.89 297.68 142.61 333.62 142.61 362.11 124.98 392.03 162.83 347.1 196.53 297 195.3 245.33 168.35 268.48 126.89"/>
  <polygon class="cls-7" points="249.64 401.82 306.67 436.9 315.83 440.71 299.93 495.31 317.9 522.27 293.19 520.02 250.5 495.31 249.64 401.82"/>
  <polygon class="cls-7" points="326.88 441.39 394.28 394.22 396.53 495.31 358.34 522.27 325.62 522.62 342.61 495.31 326.88 441.39"/>
  <ellipse cx="294.31" cy="294.25" rx="8.99" ry="15.73"/>
  <ellipse cx="339.24" cy="294.25" rx="8.99" ry="15.73"/>
  <circle class="cls-9" cx="300.42" cy="294.76" r="4.49"/>
  <circle class="cls-9" cx="343.73" cy="294.25" r="4.49"/>
  <path d="m291.03,344.99c-.43-.71-.94-1.1-1.72-1.35-.83-.27-1.56.33-1.85,1.05-1.51,3.88.72,8.04,3.2,10.96,1.34,1.58,2.96,2.99,4.73,4.06s3.61,1.48,5.61,1.77c10.23,1.46,19.83-2.75,28.95-6.82,5.13-2.29,10.3-4.61,15.8-5.87,1.88-.43,1.08-3.33-.8-2.89-9.09,2.09-17.2,6.93-25.9,10.1-4.24,1.54-8.67,2.72-13.2,2.8-3.98.07-7.83-.45-10.92-3.1-2.71-2.33-6.06-6.38-4.58-10.2l-1.85,1.05-.07-.02c1,1.65,3.59.14,2.59-1.51h0Z"/>
  <path d="m314.06,310.37c-.71-.76-1.68-.55-2.41.05-.85.7-1.44,1.78-1.73,2.83s-.3,2.26.42,3.12c.86,1.02,2.36,1.01,3.57.84,1.48-.2,2.87-.74,4.32-1.08.47-.11.27-.83-.2-.72-1.07.25-2.11.62-3.18.87s-2.4.51-3.41,0c-1.82-.91-.72-3.71.25-4.85.46-.53,1.23-1.19,1.85-.53.33.35.86-.18.53-.53h0Z"/>
  <ellipse class="cls-2" cx="271.85" cy="676.15" rx="32.57" ry="14.6"/>
  <ellipse class="cls-2" cx="379.68" cy="678.4" rx="32.57" ry="14.6"/>
  <path class="cls-1" d="m274.16,272.96c2.79-12.1,16.8-19.18,31.32-15.83"/>
  <path class="cls-1" d="m368.44,280.77c.21-12.3-11.77-22.47-26.79-22.73"/>
</svg>