<?xml version="1.0" encoding="UTF-8"?>
<svg id="Lager_2" data-name="Lager 2" xmlns="http://www.w3.org/2000/svg" viewBox="0 0 637 746">
  <defs>
    <style>
      .cls-1 {
        fill: #f2f2f2;
        stroke-width: .75px;
      }

      .cls-1, .cls-2, .cls-3, .cls-4, .cls-5 {
        stroke: #000;
        stroke-miterlimit: 10;
      }

      .cls-6 {
        fill: #fff;
      }

      .cls-2, .cls-5, .cls-7 {
        fill: none;
      }

      .cls-4 {
        fill: #a1cc85;
      }

      .cls-5 {
        stroke-width: 2px;
      }
    </style>
  </defs>
  <line class="cls-4" x1="511.22" y1="400.21" x2="589.21" y2="357.67"/>
  <line class="cls-4" x1="199.24" y1="416.75" x2="98.79" y2="373.03"/>
  <path class="cls-1" d="m596.39,365.31c-4.49-2.35-6.63-7.36-6.63-7.36,0,0,5.18-1.17,9.68,1.18,4.49,2.35,7.46,5.64,6.63,7.36-.85,1.71-5.18,1.17-9.68-1.18Z"/>
  <path class="cls-1" d="m598.13,349.69c4.71-2.23,9.08-2.66,9.77-.93.69,1.73-2.57,4.95-7.28,7.2-4.7,2.24-9.76.93-9.76.93,0,0,2.57-4.95,7.27-7.2Z"/>
  <path class="cls-1" d="m595.55,348.94c-1.79,5.12-6.29,8.17-6.29,8.17,0,0-1.59-5.25.2-10.35,1.79-5.12,4.6-8.77,6.28-8.17,1.68.61,1.6,5.23-.19,10.35Z"/>
  <path class="cls-1" d="m98.06,363.29c1.77,4.75,0,9.9,0,9.9,0,0-4.63-2.59-6.41-7.36-1.77-4.75-1.78-9.19,0-9.9,1.78-.71,4.63,2.59,6.41,7.36Z"/>
  <path class="cls-1" d="m86.32,373.74c-4.99-1.49-8.53-4.1-7.89-5.85.65-1.75,5.22-1.96,10.23-.48,4.99,1.48,7.88,5.83,7.88,5.83,0,0-5.22,1.96-10.22.49Z"/>
  <path class="cls-1" d="m87.74,376.03c4.75-2.61,10.14-1.87,10.14-1.87,0,0-2.33,4.97-7.07,7.56-4.75,2.61-9.29,3.44-10.13,1.88-.84-1.58,2.31-4.96,7.07-7.57Z"/>
  <g>
    <polygon class="cls-4" points="499.17 497.11 215.78 497.11 215.78 187.82 513.96 176 499.17 497.11"/>
    <polygon class="cls-4" points="495.25 494.75 211.86 494.75 211.86 185.45 510.04 173.64 495.25 494.75"/>
    <polygon class="cls-4" points="492.08 499.48 208.69 499.48 208.69 190.18 506.87 178.36 492.08 499.48"/>
    <polygon class="cls-4" points="482.63 506.57 199.24 506.57 199.24 197.27 497.41 185.45 482.63 506.57"/>
    <polygon class="cls-4" points="505.62 513.66 194.51 513.66 194.51 204.36 521.85 192.54 505.62 513.66"/>
    <rect class="cls-4" x="185.06" y="211.13" width="328.53" height="401.79"/>
    <polygon points="195.69 212.31 183.88 210.53 209.87 183.95 214.6 186.31 195.69 212.31"/>
  </g>
  <ellipse class="cls-3" cx="311.5" cy="354.12" rx="13" ry="24.82"/>
  <ellipse class="cls-3" cx="382.41" cy="354.12" rx="13" ry="24.82"/>
  <ellipse class="cls-6" cx="391.18" cy="351.41" rx="7.09" ry="8.27"/>
  <ellipse class="cls-6" cx="320.96" cy="350.58" rx="7.09" ry="8.27"/>
  <path class="cls-7" d="m278.41,415.57c0,19.6,44.4,35.45,99.27,35.45"/>
  <path class="cls-7" d="m396.59,422.66c0,18.29,6.34,33.09,14.18,33.09"/>
  <path class="cls-5" d="m268.96,422.66c0,22.21,54.97,40.18,122.9,40.18"/>
  <path class="cls-2" d="m337.35,392.22c-2.25.54-3.63,3.1-3.33,5.39s1.96,4.24,3.95,5.42c2.95,1.76,6.76,2.05,9.88.62s5.42-4.58,5.68-8"/>
  <path class="cls-2" d="m386.7,293.48c25.92-3.3,49.56,15,52.86,40.92"/>
  <path class="cls-2" d="m251.78,334.65c2.5-26.01,25.57-45.03,51.58-42.53"/>
  <path class="cls-2" d="m241.49,419.97c3.36-15.31,20.53-24.53,38.4-20.62"/>
</svg>