<?xml version="1.0" encoding="UTF-8"?>
<svg id="Lager_2" data-name="Lager 2" xmlns="http://www.w3.org/2000/svg" viewBox="0 0 1000 1000">
  <defs>
    <style>
      .cls-1 {
        fill: #ecbdef;
      }

      .cls-1, .cls-2, .cls-3, .cls-4, .cls-5, .cls-6 {
        stroke: #000;
      }

      .cls-1, .cls-2, .cls-3, .cls-4, .cls-5, .cls-6, .cls-7 {
        stroke-miterlimit: 10;
      }

      .cls-2 {
        fill: none;
      }

      .cls-4 {
        fill: #f4dc76;
      }

      .cls-5, .cls-7 {
        fill: #fff;
      }

      .cls-6 {
        fill: #00b3e1;
      }

      .cls-7 {
        stroke: #fff;
      }
    </style>
  </defs>
  <rect class="cls-6" x="192.05" y="321.31" width="693.2" height="175.81"/>
  <rect class="cls-4" x="192.05" y="60.1" width="693.2" height="175.81" transform="translate(1077.31 296.02) rotate(180)"/>
  <ellipse class="cls-3" cx="330.19" cy="132.94" rx="17.58" ry="32.65"/>
  <circle class="cls-7" cx="350.29" cy="122.89" r="7.53"/>
  <path class="cls-1" d="m294.8,153.34c-18.41,56.49,76.59,33.7,76.59,33.7,0,0-69.39-55.78-76.59-33.7Z"/>
  <ellipse class="cls-3" cx="420.61" cy="132.94" rx="17.58" ry="32.65"/>
  <circle class="cls-7" cx="435.68" cy="122.89" r="7.53"/>
  <path class="cls-2" d="m450.35,176.41c-10.71,28.6-53.04,39.15-94.64,23.57"/>
  <path class="cls-2" d="m474.36,193.18c.83-19.42-14.17-35.8-33.54-36.63"/>
  <path class="cls-2" d="m292.89,83.04c15.44-19.65,42.06-24.44,59.53-10.72"/>
  <path class="cls-2" d="m398.78,73.15c20.75-13.92,47.56-10.25,59.93,8.19"/>
  <rect class="cls-6" x="398.01" y="497.12" width="45.21" height="271.25"/>
  <rect class="cls-6" x="614" y="497.12" width="45.21" height="271.25"/>
  <path d="m523.44,380.96c1.93,0,1.93-3,0-3s-1.93,3,0,3h0Z"/>
  <path d="m523.44,417.82c1.93,0,1.93-3,0-3s-1.93,3,0,3h0Z"/>
  <path d="m524.98,453.14c1.93,0,1.93-3,0-3s-1.93,3,0,3h0Z"/>
  <path class="cls-5" d="m654.19,763.35h-40.19c-13.81,0-25.12,11.3-25.12,25.12v10.05c0,8.09,3.87,15.27,9.85,19.84,3.62,1.31,7.03,2.91,10.15,4.77-3.77-.8-7.18-2.41-10.15-4.77-8.14-3.06-17.33-4.77-27.02-4.77-33.5,0-60.68,20.24-60.68,45.21s27.18,45.21,60.68,45.21c15.62,0,29.89-4.42,40.64-11.7,5.48,7.08,14.12,11.7,23.76,11.7h3.01c16.58,0,30.14-13.56,30.14-30.14v-30.14c0-8.14-3.32-15.57-8.54-21,10.7-2.86,18.59-12.66,18.59-24.21v-10.05c0-13.81-11.3-25.12-25.12-25.12Zm-40.44,60.28c-.55.55-1,1.1-1.41,1.66-1.1-.75-2.21-1.46-3.42-2.16,1.56.3,3.16.5,4.82.5Z"/>
  <path class="cls-5" d="m443.21,753.3h-40.19c-13.81,0-25.12,11.3-25.12,25.12v10.05c0,8.09,3.87,15.27,9.85,19.84,3.62,1.31,7.03,2.91,10.15,4.77-3.77-.8-7.18-2.41-10.15-4.77-8.14-3.06-17.33-4.77-27.02-4.77-33.5,0-60.68,20.24-60.68,45.21s27.18,45.21,60.68,45.21c15.62,0,29.89-4.42,40.64-11.7,5.48,7.08,14.12,11.7,23.76,11.7h3.01c16.58,0,30.14-13.56,30.14-30.14v-30.14c0-8.14-3.32-15.57-8.54-21,10.7-2.86,18.59-12.66,18.59-24.21v-10.05c0-13.81-11.3-25.12-25.12-25.12Zm-40.44,60.28c-.55.55-1,1.1-1.41,1.66-1.1-.75-2.21-1.46-3.42-2.16,1.56.3,3.16.5,4.82.5Z"/>
</svg>