<?xml version="1.0" encoding="UTF-8"?>
<svg id="Lager_2" data-name="Lager 2" xmlns="http://www.w3.org/2000/svg" viewBox="0 0 637 746">
  <defs>
    <style>
      .cls-1 {
        fill: #ecbdef;
      }

      .cls-1, .cls-2, .cls-3, .cls-4, .cls-5, .cls-6, .cls-7, .cls-8 {
        stroke-miterlimit: 10;
      }

      .cls-1, .cls-2, .cls-3, .cls-4, .cls-5, .cls-6, .cls-8 {
        stroke: #000;
      }

      .cls-2, .cls-4, .cls-9 {
        fill: #f2f2f2;
      }

      .cls-2, .cls-5, .cls-6 {
        stroke-width: .75px;
      }

      .cls-10, .cls-7 {
        fill: #fff;
      }

      .cls-3, .cls-5 {
        fill: none;
      }

      .cls-4 {
        stroke-width: .5px;
      }

      .cls-7 {
        stroke: #fff;
      }

      .cls-8 {
        fill: #eca2ef;
      }
    </style>
  </defs>
  <path class="cls-7" d="m183.26,414.38l208.69,62.07,25.33-17.73s15.2-22.8,17.73-22.8,12.66-25.33,12.66-25.33l-131.71-169.71-132.7,173.5Z"/>
  <path class="cls-3" d="m366.45,342.75c12.6-.11,22.89,11.14,23.01,25.14"/>
  <g>
    <path class="cls-9" d="m174.31,420.47c-10.1,0-18.67-2.72-25.45-8.08-13.65-10.78-18.5-31.06-13.66-57.11,4.86-26.16,18.91-54.95,39.56-81.09,31.31-39.64,71.75-65.25,103-65.25,10.1,0,18.67,2.72,25.45,8.08,28.27,22.34,16.66,84.33-25.9,138.19-31.31,39.63-71.74,65.25-103,65.25h0Z"/>
    <path d="m277.76,209.46c9.99,0,18.45,2.68,25.14,7.97,28.06,22.17,16.4,83.85-25.98,137.49-15.53,19.66-33.57,36.19-52.15,47.8-18.08,11.29-35.52,17.26-50.46,17.26-9.99,0-18.45-2.68-25.14-7.97-28.06-22.17-16.4-83.85,25.98-137.49,15.53-19.66,33.57-36.19,52.15-47.8,18.08-11.29,35.52-17.26,50.46-17.26m0-1c-30.35,0-71.14,24.61-103.39,65.44-42.79,54.16-54.35,116.35-25.82,138.9,7.03,5.55,15.84,8.18,25.76,8.18,30.35,0,71.14-24.61,103.39-65.44,42.79-54.16,54.35-116.35,25.82-138.9-7.03-5.55-15.84-8.18-25.76-8.18h0Z"/>
  </g>
  <path class="cls-8" d="m304.57,310.53c-31.66,16.46-67.12-8.87-74.72-13.93l-18.45,23.16c32.4,14.96,34.07,58.51,34.72,67.62l36.78-40.13,21.67-36.71Z"/>
  <polyline class="cls-3" points="191.47 417.83 391.95 478.98 417.28 458.71 435.02 435.92 447.68 410.59 315.97 240.88"/>
  <polygon class="cls-1" points="435.02 491.64 473.01 509.37 417.28 615.76 379.29 595.49 435.02 491.64"/>
  <path class="cls-3" d="m306.52,340.04c7-10.48,22.09-12.66,33.73-4.88"/>
  <path class="cls-4" d="m329.84,504.08c.85,1.5,84.38-21.5,84.38-21.5l2.74,6.62-83.18,20.99-3.94-6.11Z"/>
  <path class="cls-4" d="m561.66,392.86l-1.32.99-67.53,50.23-5.93-4.13c2.43,0,58.89-43.74,68.37-51.12.86-.66,1.34-1.04,1.34-1.04l5.07,5.07Z"/>
  <polygon class="cls-1" points="447.68 410.59 508.47 440.98 470.48 514.44 391.95 478.98 417.28 458.71 435.02 435.92 447.68 410.59"/>
  <path class="cls-2" d="m324.02,498.93c4.73,2.67,6.85,8.1,6.85,8.1,0,0-5.59,1.08-10.33-1.59-4.73-2.67-7.81-6.29-6.85-8.1.97-1.81,5.59-1.08,10.33,1.59Z"/>
  <path class="cls-2" d="m321.63,515.6c-5.12,2.23-9.82,2.55-10.5.67-.68-1.88,2.92-5.22,8.04-7.46,5.11-2.24,10.49-.67,10.49-.67,0,0-2.92,5.22-8.03,7.47Z"/>
  <path class="cls-2" d="m324.37,516.49c2.09-5.42,7.01-8.54,7.01-8.54,0,0,1.53,5.67-.57,11.08-2.09,5.42-5.23,9.24-7,8.54-1.78-.71-1.53-5.66.55-11.08Z"/>
  <g>
    <path class="cls-2" d="m567.57,396.5c-5.27-1.34-8.73-6.04-8.73-6.04,0,0,5.11-2.5,10.39-1.16,5.27,1.34,9.18,4.04,8.73,6.04-.46,1.99-5.11,2.5-10.39,1.16Z"/>
    <path class="cls-2" d="m565.54,379.79c4.36-3.49,8.82-5.02,9.96-3.38,1.15,1.63-1.46,5.8-5.82,9.3-4.35,3.49-9.95,3.38-9.95,3.38,0,0,1.46-5.8,5.81-9.3Z"/>
    <path class="cls-2" d="m562.66,379.64c-.6,5.78-4.54,10.07-4.54,10.07,0,0-2.96-5.08-2.34-10.84.6-5.78,2.64-10.28,4.53-10.07,1.91.22,2.96,5.06,2.36,10.84Z"/>
  </g>
  <ellipse class="cls-6" cx="364.09" cy="368.79" rx="13.93" ry="7.6" transform="translate(-110.53 576.89) rotate(-69.04)"/>
  <ellipse class="cls-6" cx="326.44" cy="356.75" rx="13.93" ry="7.6" transform="translate(-131.98 510.63) rotate(-66.1)"/>
  <ellipse class="cls-10" cx="333.94" cy="357.11" rx="5.7" ry="5.17" transform="translate(-142.3 467.76) rotate(-60)"/>
  <ellipse class="cls-10" cx="371.23" cy="370.37" rx="5.53" ry="5.37"/>
  <path d="m352.45,413.7c-3.37-3.98-9.28-5.17-13.88-7.17-7.11-3.1-14.35-5.61-21.88-7.53s-14.74-3.22-22.24-4.04c-5.44-.59-13.04-2.66-17.95.66-8.83,5.97.12,18,5.8,22.48,9.18,7.23,21.23,9.11,32.59,9.62,6.76.3,13.93.69,20.62-.47,7.74-1.33,14.65-5.11,21.49-8.77,1.42-.76.16-2.92-1.26-2.16-6.43,3.44-12.89,7.01-20.13,8.38-6.67,1.26-13.95.83-20.71.52-12.79-.57-28.04-3.09-36.15-14.2-1.84-2.52-3.55-5.79-3.25-8.99.52-5.64,6.31-5.78,10.72-5.36,7.95.75,15.86,1.62,23.68,3.3,7.46,1.6,14.89,3.65,22,6.43,3.27,1.28,6.42,2.81,9.69,4.07s6.78,2.29,9.08,5.01c1.04,1.23,2.8-.55,1.77-1.77h0Z"/>
  <path d="m353.97,417.83c1.61,0,1.61-2.5,0-2.5s-1.61,2.5,0,2.5h0Z"/>
  <path d="m353.97,417.03c1.61,0,1.61-2.5,0-2.5s-1.61,2.5,0,2.5h0Z"/>
  <path class="cls-5" d="m335.54,374.95c-1.75-.54-3.47.83-4.8,2.1-.72.69-1.5,1.6-1.22,2.55.21.69.9,1.09,1.54,1.42.95.5,1.91,1,2.86,1.5.92.48,1.89.98,2.93.97s2.16-.68,2.28-1.72"/>
  <path class="cls-3" d="m122.19,204.15c28.71,30.4,57.41,60.79,86.12,91.19"/>
  <path class="cls-3" d="m220.26,283.59c-17.25-41.98-34.5-83.97-51.75-125.95"/>
  <line class="cls-3" x1="200.71" y1="313.07" x2="69" y2="272.54"/>
</svg>