<?xml version="1.0" encoding="UTF-8"?>
<svg xmlns="http://www.w3.org/2000/svg" viewBox="0 0 1000 1000">
  <defs>
    <style>
      .cls-1 {
        fill: none;
      }

      .cls-1, .cls-2, .cls-3, .cls-4, .cls-5 {
        stroke: #000;
        stroke-miterlimit: 10;
      }

      .cls-2, .cls-6 {
        fill: #a67c52;
      }

      .cls-7 {
        isolation: isolate;
      }

      .cls-4 {
        fill: #fff;
      }

      .cls-5 {
        fill: #8c6239;
      }

      .cls-6 {
        mix-blend-mode: multiply;
        opacity: .56;
      }
    </style>
  </defs>
  <g class="cls-7">
    <g id="Lager_2" data-name="Lager 2">
      <g>
        <path class="cls-2" d="m860.95,464.33c-5.35-6.54-12.98-10.15-20.85-10.61-7-.41-14.19,1.67-20.02,6.42l-.41.36c.65-1.6,1.04-3.29,1.14-5.01.24-3.83-.9-7.7-3.46-10.85-3.08-3.8-7.58-5.76-12.13-5.76l16.49-13.44-160.8-197.63-11.89,9.69c1.21-4.7.29-9.95-3-13.97-2.88-3.58-7.05-5.52-11.28-5.76-1.86-.12-3.78.12-5.59.65,10-10.41,10.9-27,1.57-38.45-5.33-6.54-12.98-10.17-20.85-10.63-7-.41-14.19,1.69-20.02,6.44l-125.81,102.4c-12.42,10.07-14.31,28.48-4.21,40.85,5.35,6.56,12.98,10.19,20.85,10.65,7,.41,14.19-1.69,20.02-6.44l6.42-5.23c-2.71,5.4-2.23,12.13,1.82,17.07,2.88,3.56,7.05,5.5,11.28,5.76.61.02,1.19.02,1.82-.02l-24.72,20.1,27.26,33.54c-2.49,1.16-4.84,2.69-7.02,4.62l-16.3,14.48c-11.94,10.61-13.03,29.06-2.4,41.02l9.95,11.21-378.82,268.72c-13.03,9.25-16.13,27.48-6.9,40.51l2.81,3.95c9.25,13.03,27.51,16.13,40.51,6.88l384.46-272.74,13.92,15.67c10.63,11.96,29.06,13.05,41.02,2.42l16.27-14.46c.39-.36.75-.7,1.11-1.07l34.92,42.91,18.94-15.4c-.17.73-.24,1.43-.29,2.15-.22,3.83.9,7.7,3.49,10.87,3.73,4.58,9.56,6.51,14.99,5.5l-.99.82c-12.37,10.1-14.26,28.48-4.19,40.9,5.33,6.54,13,10.17,20.85,10.63,7.02.41,14.19-1.67,20.02-6.44l125.84-102.38c12.42-10.1,14.29-28.5,4.21-40.9Zm-117.46-20.99c-.15.12-.31.24-.46.39s-.31.27-.46.39c-.24.22-.51.41-.75.61-1.23.99-2.49,1.84-3.7,2.57-8.67,5.42-17.36,6.63-20.92,2.42-4.31-5.11.48-16.25,10.68-24.87,10.22-8.62,22.01-11.48,26.32-6.37,4.31,5.11-.48,16.25-10.7,24.87Z"/>
        <path class="cls-6" d="m480.65,329.68c7,.41,14.19-1.69,20.02-6.44l6.42-5.23c-.03.05-.04.11-.07.16,4.31-5.77,11.6-10.09,16.75-14.13,9.59-7.52,18.61-15.77,28.34-23.12,9.44-7.13,19.07-13.88,28.08-21.56,4.59-3.91,9.28-7.68,13.96-11.47.41-.78.95-1.47,1.58-1.97,7.6-5.95,14.15-13.12,21.81-18.99,3.74-2.86,7.87-6.75,12.49-8.7-.3.07-.61.1-.91.19,10-10.41,10.9-27,1.57-38.45-5.33-6.54-12.98-10.17-20.85-10.63-7-.41-14.19,1.69-20.02,6.44l-125.81,102.4c-12.42,10.07-14.31,28.48-4.21,40.85,5.35,6.56,12.98,10.19,20.85,10.65Z"/>
        <path class="cls-6" d="m621.69,516.48c.75-1.05,1.57-2.05,2.35-3.08-6.3-7.81-13.72-14.7-19.55-22.9-6.32-8.87-13.4-16.85-20.8-24.83-7.43-8-14.12-16.39-20.5-25.25-6.61-9.17-13.81-17.88-20.77-26.78-2.98-3.81-5.92-7.71-9.77-10.66-2.6-1.99-5.42-4.07-7.11-6.91-1.36.04-2.72.08-4.08.08-1.35.85-2.66,1.81-3.91,2.92l-16.3,14.48c-11.94,10.61-13.03,29.06-2.4,41.02l8.88,10c3.14.28,5.04,1.9,6.36,4.93,1.07,2.46,2.48,4.62,3.97,6.84,1.52,2.26,3.26,4.16,5.18,6.09,2.06,2.07,3.82,4.37,5.71,6.59,2.14,2.51,4.34,4.96,6.42,7.52,1.76,2.17,3.31,4.52,5.17,6.61,1.42,1.59,2.79,2.31,4.59,3.35,2.37,1.37,4.48,3.63,3.6,6.6-.23.77-.56,1.52-.99,2.21l3.12-2.22,13.92,15.67c10.63,11.96,29.06,13.05,41.02,2.42l14.95-13.28c.31-.49.62-.97.95-1.43Z"/>
        <path class="cls-6" d="m860.95,464.33c-5.35-6.54-12.98-10.15-20.85-10.61-7-.41-14.19,1.67-20.02,6.42l-.04.03c0,.06,0,.12-.01.18-.35,1.95-1.6,3.53-3.22,4.54-.37.3-.76.59-1.13.89-1.16.92-2.3,1.86-3.44,2.8-2.91,2.39-5.81,4.8-8.68,7.23-5.95,5.02-11.6,10.36-17.71,15.19-10.01,7.91-20.36,15.41-30.48,23.17-10.26,7.86-20.47,15.79-30.54,23.89-4.7,3.79-9.1,7.79-13.49,11.93-4.49,4.24-9.4,7.78-14.49,11.25.01-.03.03-.06.04-.09-.75.5-1.55.87-2.34,1.08l-.32.27c-12.37,10.1-14.26,28.48-4.19,40.9,5.33,6.54,13,10.17,20.85,10.63,7.02.41,14.19-1.67,20.02-6.44l125.84-102.38c12.42-10.1,14.29-28.5,4.21-40.9Z"/>
        <path class="cls-2" d="m743.49,443.34c-.15.12-.31.24-.46.39s-.31.27-.46.39c-.24.22-.51.41-.75.61-1.23.99-2.49,1.84-3.7,2.57-8.67,5.42-17.36,6.63-20.92,2.42-4.31-5.11.48-16.25,10.68-24.87,10.22-8.62,22.01-11.48,26.32-6.37,4.31,5.11-.48,16.25-10.7,24.87Z"/>
        <path d="m493,553.13c1.93,0,1.93-3,0-3s-1.93,3,0,3h0Z"/>
        <path class="cls-3" d="m743.49,443.34c6.03-5.47,8.89-11.99,6.42-14.92-2.59-3.08-10.05-1.02-16.71,4.6-6.63,5.59-9.93,12.62-7.34,15.69,2.01,2.4,7,1.67,12.25-1.43-8.67,5.42-17.36,6.63-20.92,2.42-4.31-5.11.48-16.25,10.68-24.87,10.22-8.62,22.01-11.48,26.32-6.37,4.31,5.11-.48,16.25-10.7,24.87Z"/>
        <path class="cls-3" d="m743.49,443.34c-.15.12-.31.24-.46.39s-.31.27-.46.39c-.24.22-.51.41-.75.61-1.23.94-2.47,1.79-3.7,2.57-5.25,3.1-10.24,3.83-12.25,1.43-2.59-3.08.7-10.1,7.34-15.69,6.66-5.62,14.12-7.68,16.71-4.6,2.47,2.93-.39,9.44-6.42,14.92Z"/>
        <path class="cls-4" d="m743.49,443.34c-.15.12-.31.24-.46.39s-.31.27-.46.39c-.24.22-.51.41-.75.61-1.23.99-2.49,1.84-3.7,2.57-5.25,3.1-10.24,3.83-12.25,1.43-2.59-3.08.7-10.1,7.34-15.69,6.66-5.62,14.12-7.68,16.71-4.6,2.47,2.93-.39,9.44-6.42,14.92Z"/>
        <path class="cls-1" d="m684.92,431.41c-10.99,22.93-2.31,49.91,19.42,60.33"/>
        <path class="cls-1" d="m701.77,423.35c-3.85-7.05-14.57-8.59-23.97-3.45"/>
        <path class="cls-1" d="m742.21,401.24c8.8-6.1,21.47-3.03,28.34,6.86"/>
        <path class="cls-5" d="m929.5,891.37c0,7.31-3,14-7.82,18.81-4.82,4.82-11.5,7.82-18.81,7.82h-385c-14.65,0-26.63-11.99-26.63-26.63,0-7.31,3-14,7.82-18.81,4.82-4.82,11.5-7.82,18.81-7.82h11.67c-2.88-3.9-4.41-7.94-4.41-12.11,0-30.75,82.93-55.69,185.23-55.69s185.23,24.94,185.23,55.69c0,4.16-1.53,8.21-4.41,12.11h11.67c14.65,0,26.63,11.99,26.63,26.63Z"/>
        <path class="cls-1" d="m529.54,864.73h361.22"/>
      </g>
    </g>
  </g>
</svg>