<?xml version="1.0" encoding="UTF-8"?>
<svg xmlns="http://www.w3.org/2000/svg" viewBox="0 0 576.36 595.28">
  <defs>
    <style>
      .cls-1 {
        fill: #fff;
      }

      .cls-2 {
        isolation: isolate;
      }

      .cls-3 {
        mix-blend-mode: multiply;
      }
    </style>
  </defs>
  <g class="cls-2">
    <g id="Lager_3" data-name="Lager 3" class="cls-3">
      <g id="Lager_4" data-name="Lager 4">
        <rect x="99.08" y="117.11" width="384.58" height="384.58" rx="192.29" ry="192.29"/>
      </g>
      <g>
        <path class="cls-1" d="m152.24,364.9l44.77,18.14-7.29,17.99c-5.01,12.36-19.09,18.32-31.45,13.31s-18.33-19.09-13.32-31.46l7.29-17.98Z"/>
        <path class="cls-1" d="m208.41,206.05c5.77-10.46,18.68-29.93,44.01-30.72.57-.02,1.11-.01,1.62.03.14-.03.28-.03.43-.03h9.82c3.93,0,7.12,3.19,7.12,7.13v7.12h9.18v-2.21c0-3.86,3.12-6.97,6.96-6.97,1.93,0,3.67.77,4.93,2.04,1.27,1.26,2.04,3,2.04,4.93v25.64c0,3.85-3.11,6.96-6.97,6.96s-6.96-3.11-6.96-6.96v-1.9h-9.19c-.07,3.85-3.23,6.96-7.11,6.96h-9.82c-3.94,0-7.13-3.19-7.13-7.11v-12.88c-5.78,1.21-12.06,2.17-18.99,5.43-12.44,5.86-30.07,20.9-19.94,2.54Z"/>
        <path class="cls-1" d="m304.54,346.89l-33.87-21.15v87.75h-22.7v-101.92l-28.53-17.81-28.04,68.23c-2.38,5.8-9.01,8.56-14.81,6.18l-.81-.33c-5.8-2.38-8.57-9.01-6.18-14.81l29.56-71.93-39.18-24.46-15.9-21.03,25.2,6.13.04-.06,36.64,22.87,15.83-38.53c2.38-5.8,9.01-8.57,14.81-6.19l.81.34c5.8,2.38,8.57,9.01,6.18,14.81l-17.36,42.24,21.74,13.57v-58.86c0-6.27,5.08-11.35,11.35-11.35,3.14,0,5.97,1.27,8.03,3.32,2.05,2.06,3.32,4.89,3.32,8.03v73.03l43.21,26.98c3.47,2.16,4.52,6.73,2.36,10.2l-1.5,2.39c-2.16,3.47-6.73,4.53-10.2,2.36Z"/>
        <path class="cls-1" d="m378.27,245.74c1.26-1.15,2.39-2.41,3.38-3.76h19.87v-6.42h14.53v-9.48h22.16v-2.75h-22.16v-7.34h-14.53v-3.97h-20.09c-4.66-7.63-12.33-13.45-21.4-13.45l-33.93-.61c-15.03,0-28.22,16.59-28.22,30.26v24.77h61.15c7.51,0,14.31-2.77,19.24-7.25Zm-37.96-5.51h-24.16v-1.53h24.16v1.53Zm0-12.54h-24.16v-1.53h24.16v1.53Zm.3-12.69h-24.15v-1.52h24.15v1.52Z"/>
        <polygon class="cls-1" points="430.23 412.59 371.94 321.02 372.43 352.66 379.21 352.66 401.83 412.28 295.44 412.59 319.28 352.66 333.04 352.66 313.78 256.66 370.95 256.97 371.1 266.84 371.03 257.01 382.03 283.26 371.43 288.23 371.62 300.42 439.56 412.56 430.23 412.59"/>
        <rect class="cls-1" x="316.15" y="238.7" width="24.16" height="1.53"/>
        <rect class="cls-1" x="316.46" y="213.48" width="24.15" height="1.52"/>
        <rect x="316.46" y="213.48" width="24.15" height="1.52"/>
        <rect x="316.15" y="226.16" width="24.16" height="1.53"/>
        <rect x="316.15" y="238.7" width="24.16" height="1.53"/>
      </g>
    </g>
  </g>
</svg>