<?xml version="1.0" encoding="UTF-8"?><svg xmlns="http://www.w3.org/2000/svg" viewBox="0 0 1046 1044"><defs><style>.w{stroke-width:7.72px;}.w,.x,.y{stroke:#000;stroke-miterlimit:10;}.x{stroke-width:9.12px;}.y{stroke-width:2.81px;}.y,.a`{fill:none;}.aa{fill:#f1f1f1;}</style></defs><g id="a"/><g id="b"/><g id="c"><g id="d"/><g id="e"/><g id="f"/></g><g id="g"><g id="h"/><g id="i"/></g><g id="j"><g id="k"/></g><g id="l"><g id="m"/></g><g id="n"/><g id="o"/><g id="p"/><g id="q"/><g id="r"/><g id="s"/><g id="t"/><g id="u"><g><circle class="aa" cx="523.23" cy="526.15" r="463.15"/><g><line class="y" x1="248.28" y1="367.64" x2="209.06" y2="506.77"/><line class="y" x1="786.31" y1="364.68" x2="829.97" y2="497.89"/><line class="a`" x1="786.31" y1="364.68" x2="784.83" y2="498.63"/><line class="y" x1="248.28" y1="367.64" x2="277.88" y2="503.81"/><g><path d="M757.38,320.82l11.98,16.63,18.51,25.69c.21,.29-.11,.66-.42,.5l-2.81-1.63-7.2-4.17-9.76-5.65-10.49-6.08c-4.62-2.68-9.21-5.41-13.78-8.18-2.31-1.4-4.62-2.82-6.93-4.24-2.11-1.3-4.03-2.9-6.21-4.07-.9-.48-1.81-.94-2.73-1.38-1.92-.92-3.89-1.76-5.88-2.52-4.37-1.67-8.88-2.98-13.44-4.04-5.14-1.19-10.36-2.06-15.59-2.7-5.86-.71-11.75-1.13-17.65-1.33-5.75-.2-11.51-.19-17.27-.02-35.85,1.06-73.26,8.35-98.33,14.28-23.25,5.5-47.76,4.76-70.91-2.14-76.74-22.86-124.89-19.74-151.78-13.1-6.8,1.68-12.6,3.66-17.48,5.71-11.83,4.95-18.3,10.26-20.74,12.53-.02,.02-.03,.03-.05,.04l-1.18,.72-10.55,6.37-38.87,23.48c-.29,.18-.63-.14-.47-.45l12.1-23.02s.01-.02,.02-.03l12.46-18.78s.03-.04,.04-.05l5.21-5.26,.02-.02c1.81-2.21,15.82-18.09,49.84-27.31,44.05-11.93,100.83-7.72,168.74,12.51,18.85,5.62,38.8,6.22,57.7,1.75,26.23-6.2,65.47-13.83,103.47-14.96,45.94-1.36,78.27,11.44,99,29.6"/><path d="M293.28,328.28c-.5,.47-.84,.81-1,.98l.03-.04-.24-.21,1.21-.73Z"/></g><ellipse cx="523.96" cy="809.83" rx="242.37" ry="32.19"/><ellipse cx="523.96" cy="790.95" rx="208.33" ry="23.68"/><ellipse cx="531.36" cy="777.63" rx="163.92" ry="19.98"/><polygon points="528.77 681.42 597.59 724.35 666.42 767.27 528.77 767.27 391.11 767.27 459.94 724.35 528.77 681.42"/><rect x="501.38" y="639.24" width="44.4" height="75.49" rx="2.87" ry="2.87"/><rect x="502.12" y="394.28" width="41.44" height="160.59" rx="2.68" ry="2.68"/><polygon points="523.32 172.26 533.08 286.6 542.83 400.94 523.32 400.94 503.82 400.94 513.57 286.6 523.32 172.26"/><circle cx="522.48" cy="195.57" r="23.31"/><ellipse cx="523.22" cy="613.34" rx="39.59" ry="49.58"/><polygon points="487.57 548.96 523.71 548.59 559.85 548.21 542.7 579.33 525.56 610.46 506.57 579.71 487.57 548.96"/><polygon points="502.15 216.04 522.86 215.61 543.57 215.18 533.18 233.57 522.8 251.96 512.47 234 502.15 216.04"/><polygon points="248.23 367.56 239.18 354.25 230.14 340.93 246.19 339.75 262.25 338.58 255.24 353.07 248.23 367.56"/><polygon points="786.52 365.04 777.48 351.73 768.43 338.41 784.49 337.23 800.55 336.06 793.53 350.55 786.52 365.04"/><polygon points="563.21 392.43 543.21 427.07 503.22 427.07 483.22 392.43 503.22 357.79 543.21 357.79 563.21 392.43"/><rect x="502.86" y="291.41" width="40.7" height="82.15" rx="2.63" ry="2.63"/><polygon points="554.78 281.71 539.43 309.16 524.08 336.6 507.99 309.58 491.9 282.56 523.34 282.14 554.78 281.71"/><line class="y" x1="248.28" y1="367.64" x2="246.06" y2="497.15"/><line class="y" x1="786.68" y1="364.31" x2="784.83" y2="498.63"/><line class="y" x1="787.05" y1="364.68" x2="747.08" y2="500.11"/><path class="x" d="M277.67,568.16l-2.47,4.2c-4.75,8.07-9.99,15.21-19.36,15.08l-27.8-.08c-9.37-.13-17.23-7.75-21.84-15.95l-4.45-7.9c-9.06-16.1-14.38-36.27-5.06-52.12l3.87-7.59c5.33-9.06,20.59-12.89,31.1-12.74l16.14,6.18c9.37,.13,28.2-4.76,32.82,3.44l7.25,7.27c10.33,18.35,.43,42.15-10.2,60.21Z"/><path class="w" d="M837,504.18v8.88c0,6.11-5,11.1-11.1,11.1h-.74v54.02c0,4.88-4,8.88-8.88,8.88h-59.95c-4.88,0-8.88-4-8.88-8.88v-54.02c-6.11,0-11.1-5-11.1-11.1v-8.88c0-6.11,5-11.1,11.1-11.1h78.45c6.11,0,11.1,5,11.1,11.1Z"/></g></g></g><g id="v"/></svg>